<svg xmlns="http://www.w3.org/2000/svg" shape-rendering="geometricPrecision" text-rendering="geometricPrecision" image-rendering="optimizeQuality" fill-rule="evenodd" clip-rule="evenodd" viewBox="0 0 512 451.41"><path d="M215.05 391.35c53.62 51.73 129.47 67.36 205.31 35.04l63.65 25.02-21.09-50.15c70.72-56.64 58.06-134.5 6-187.56-3.48 20.4-10.39 39.73-20.23 57.61-13.98 25.43-34 48.02-58.52 66.63-23.76 18.04-51.5 32.18-81.73 41.32-28.8 8.72-60.35 13.06-93.38 12.09h-.01zM107.18 164.74l83.8 84.56v-42.18c13.23-2.65 25.78-3.93 37.63-3.77 11.87.18 23.09 1.93 33.62 5.27 10.53 3.39 20.42 8.35 29.58 14.95 9.21 6.59 17.81 14.94 25.87 24.96-1.33-20.56-5.7-38.58-13.06-54.08-7.37-15.46-16.75-28.39-28.22-38.75-11.43-10.36-24.49-18.24-39.14-23.6-14.64-5.34-30.05-8.34-46.28-9.03v-42.9l-83.8 84.57zM278.32 6.61c39.61 8.97 74.76 26.62 102.21 50.15 39.68 34.02 63.47 80.32 61.98 130.88v.11c-.82 27.28-8.94 52.92-22.79 75.74-14.25 23.47-34.48 43.88-58.99 59.94-32.34 21.19-72.82 34.3-114.06 38.2-38.57 3.64-77.97-.77-112.17-14.13L5.4 401.86l53.89-98.52c-17.84-15.85-32.3-34.24-42.46-54.37C5.3 226.12-.72 201.02.07 174.8c1.53-50.62 28.09-95.52 69.8-127.17 25.44-19.3 56.56-33.68 91.03-41.34 38.31-8.52 79.12-8.35 117.42.32zM169.34 32.95c-31.45 6.63-59.74 19.47-82.65 36.85-35.14 26.67-57.51 64.04-58.77 105.76-.65 21.44 4.32 42.03 13.82 60.85 10.02 19.86 25.06 37.78 43.88 52.69l9.22 7.31-26.7 48.81 66.36-27.94 5.4 2.3c31.12 13.27 67.94 17.72 104.15 14.3 36.8-3.48 72.79-15.09 101.39-33.83 21.16-13.86 38.48-31.23 50.47-50.98 11.4-18.78 18.07-39.81 18.75-62.08v-.12c1.23-41.69-18.83-80.26-52.26-108.91-23.1-19.81-52.5-34.89-85.71-43.11-34.76-8.61-72.33-9.28-107.35-1.9z"/></svg>